<svg width="27" height="28" viewBox="0 0 27 28" fill="none" xmlns="http://www.w3.org/2000/svg">
<path d="M3.9386 11.4316L12.9094 20.1762C13.0669 20.3298 13.2783 20.4158 13.4983 20.4158C13.7183 20.4158 13.9297 20.3298 14.0872 20.1762L23.0614 11.4316C23.1348 11.3601 23.1932 11.2745 23.2331 11.18C23.273 11.0856 23.2935 10.984 23.2935 10.8815C23.2935 10.7789 23.273 10.6774 23.2331 10.5829C23.1932 10.4884 23.1348 10.4029 23.0614 10.3314C22.9107 10.1842 22.7084 10.1018 22.4977 10.1018C22.2871 10.1018 22.0848 10.1842 21.9341 10.3314L13.4983 18.5545L5.06417 10.3314C4.91355 10.1847 4.71162 10.1026 4.50139 10.1026C4.29115 10.1026 4.08922 10.1847 3.9386 10.3314C3.86512 10.4029 3.80672 10.4884 3.76684 10.5829C3.72697 10.6774 3.70642 10.7789 3.70642 10.8815C3.70642 10.984 3.72697 11.0856 3.76684 11.18C3.80672 11.2745 3.86512 11.3601 3.9386 11.4316Z" fill="black"/>
</svg>
