<svg width="35" height="36" viewBox="0 0 35 36" fill="none" xmlns="http://www.w3.org/2000/svg">
<path d="M1.55132 0.564709C1.148 0.715183 0.689995 1.05716 0.437065 1.40599C-0.0414505 2.06259 -0.00727085 0.886173 0.00640102 15.9881L0.0269088 29.6332L0.197807 29.9752C0.409721 30.4129 0.888237 30.8917 1.32574 31.1037L1.66753 31.2747L9.76812 31.2952L17.8687 31.3157L18.2447 31.8287C18.73 32.5058 19.7281 33.4497 20.4459 33.9285C22.0523 34.9955 23.6861 35.4811 25.6207 35.4811C26.7486 35.4811 27.6168 35.3511 28.5669 35.0297C31.7867 33.9558 34.2134 31.1174 34.7535 27.8207C34.8902 26.9794 34.8834 25.4336 34.7466 24.6402C34.1793 21.3299 31.7662 18.5324 28.5669 17.4655C27.5621 17.1303 26.7964 17.014 25.6138 17.014H24.6021L24.5884 9.57252L24.5679 2.13783L24.397 1.79585C24.1851 1.35811 23.7066 0.879333 23.2691 0.667305L22.9273 0.496315L12.3658 0.482635C3.54058 0.475796 1.76324 0.489475 1.55132 0.564709ZM22.4283 2.63712C22.4966 2.70552 22.524 4.16236 22.5377 10.1129L22.5513 17.4997L22.3394 17.5749C21.8951 17.7254 20.9244 18.2383 20.398 18.594L19.8511 18.9633L14.3482 18.9839C9.35796 19.0044 8.8316 19.0181 8.65386 19.1207C8.35308 19.2985 8.19585 19.6131 8.19585 20.0303C8.19585 20.4407 8.33257 20.7075 8.64703 20.9195C8.83843 21.0426 9.05035 21.0494 13.3775 21.0494C15.8658 21.0494 17.9029 21.0563 17.9029 21.07C17.9029 21.0836 17.7662 21.3367 17.5953 21.6376C17.4244 21.9317 17.1988 22.3832 17.0962 22.6362L16.9117 23.1013H12.8785C9.04351 23.1013 8.83843 23.1082 8.64703 23.2313C8.33257 23.4433 8.19585 23.7032 8.19585 24.1273C8.19585 24.5513 8.33257 24.8112 8.64703 25.0233C8.83843 25.1464 9.03667 25.1532 12.6255 25.1532H16.399V26.1586C16.399 27.2256 16.5152 28.1285 16.7339 28.8398L16.8638 29.257L9.55621 29.2433C3.6773 29.2296 2.23492 29.2023 2.16656 29.1339C2.09136 29.0587 2.07085 26.6032 2.05718 16.0702C2.05035 8.93643 2.05718 2.99278 2.07769 2.86967C2.10503 2.72604 2.17339 2.62344 2.2691 2.58241C2.35796 2.54821 6.69195 2.52769 12.3794 2.53453C20.4459 2.54821 22.3531 2.56189 22.4283 2.63712ZM26.4136 19.1617C27.7808 19.2711 29.3189 19.9688 30.4605 21.0084C31.3765 21.8428 32.2037 23.2244 32.5455 24.4693C32.6822 24.9686 32.7027 25.2148 32.7027 26.2476C32.7027 27.6428 32.5933 28.1695 32.0806 29.2502C31.356 30.7822 30.1939 31.9518 28.6695 32.6837C25.5318 34.1815 21.8335 33.1966 19.7828 30.3171C19.3726 29.7495 18.9078 28.744 18.7095 28.0259C18.5728 27.5197 18.5523 27.2872 18.5523 26.2476C18.5523 24.8591 18.6617 24.3325 19.1607 23.2655C19.564 22.4174 19.9468 21.8702 20.5962 21.2136C21.8062 20.0098 23.358 19.278 24.9986 19.1412C25.3267 19.1138 25.6685 19.1001 25.7642 19.107C25.8599 19.1207 26.1539 19.1412 26.4136 19.1617Z" fill="url(#paint0_linear_1_1084)"/>
<path d="M4.54541 6.8161C4.23096 7.02813 4.09424 7.28803 4.09424 7.71209C4.09424 8.36186 4.47021 8.73804 5.11963 8.73804C5.76904 8.73804 6.14502 8.36186 6.14502 7.71209C6.14502 7.06233 5.76904 6.68614 5.11963 6.68614C4.8667 6.68614 4.68213 6.72718 4.54541 6.8161Z" fill="url(#paint1_linear_1_1084)"/>
<path d="M8.64697 6.8161C8.33252 7.02813 8.1958 7.28803 8.1958 7.71209C8.1958 8.13615 8.33252 8.39606 8.64697 8.60808C8.83838 8.7312 9.0708 8.73804 14.3481 8.73804C19.6255 8.73804 19.8579 8.7312 20.0493 8.60808C20.3638 8.39606 20.5005 8.13615 20.5005 7.71209C20.5005 7.28803 20.3638 7.02813 20.0493 6.8161C19.8579 6.69298 19.6255 6.68614 14.3481 6.68614C9.0708 6.68614 8.83838 6.69298 8.64697 6.8161Z" fill="url(#paint2_linear_1_1084)"/>
<path d="M4.54541 10.92C4.23096 11.132 4.09424 11.3919 4.09424 11.816C4.09424 12.4657 4.47021 12.8419 5.11963 12.8419C5.76904 12.8419 6.14502 12.4657 6.14502 11.816C6.14502 11.1662 5.76904 10.79 5.11963 10.79C4.8667 10.79 4.68213 10.8311 4.54541 10.92Z" fill="url(#paint3_linear_1_1084)"/>
<path d="M8.64697 10.92C8.33252 11.132 8.1958 11.3919 8.1958 11.816C8.1958 12.24 8.33252 12.4999 8.64697 12.712C8.83838 12.8351 9.0708 12.8419 14.3481 12.8419C19.6255 12.8419 19.8579 12.8351 20.0493 12.712C20.3638 12.4999 20.5005 12.24 20.5005 11.816C20.5005 11.3919 20.3638 11.132 20.0493 10.92C19.8579 10.7969 19.6255 10.79 14.3481 10.79C9.0708 10.79 8.83838 10.7969 8.64697 10.92Z" fill="url(#paint4_linear_1_1084)"/>
<path d="M4.54541 15.0237C4.23096 15.2358 4.09424 15.4957 4.09424 15.9197C4.09424 16.5695 4.47021 16.9457 5.11963 16.9457C5.76904 16.9457 6.14502 16.5695 6.14502 15.9197C6.14502 15.27 5.76904 14.8938 5.11963 14.8938C4.8667 14.8938 4.68213 14.9348 4.54541 15.0237Z" fill="url(#paint5_linear_1_1084)"/>
<path d="M8.64697 15.0237C8.33252 15.2358 8.1958 15.4957 8.1958 15.9197C8.1958 16.3438 8.33252 16.6037 8.64697 16.8157C8.83838 16.9388 9.0708 16.9457 14.3481 16.9457C19.6255 16.9457 19.8579 16.9388 20.0493 16.8157C20.3638 16.6037 20.5005 16.3438 20.5005 15.9197C20.5005 15.4957 20.3638 15.2358 20.0493 15.0237C19.8579 14.9006 19.6255 14.8938 14.3481 14.8938C9.0708 14.8938 8.83838 14.9006 8.64697 15.0237Z" fill="url(#paint6_linear_1_1084)"/>
<path d="M4.54541 19.1275C4.23096 19.3395 4.09424 19.5994 4.09424 20.0235C4.09424 20.6733 4.47021 21.0494 5.11963 21.0494C5.76904 21.0494 6.14502 20.6733 6.14502 20.0235C6.14502 19.3737 5.76904 18.9975 5.11963 18.9975C4.8667 18.9975 4.68213 19.0386 4.54541 19.1275Z" fill="url(#paint7_linear_1_1084)"/>
<path d="M4.54541 23.2313C4.23096 23.4433 4.09424 23.7032 4.09424 24.1273C4.09424 24.777 4.47021 25.1532 5.11963 25.1532C5.76904 25.1532 6.14502 24.777 6.14502 24.1273C6.14502 23.4775 5.76904 23.1013 5.11963 23.1013C4.8667 23.1013 4.68213 23.1423 4.54541 23.2313Z" fill="url(#paint8_linear_1_1084)"/>
<path d="M25.0532 21.1794C24.6157 21.4735 24.6021 21.5213 24.6021 23.4228V25.1532H23.3921C22.0522 25.1532 21.936 25.1874 21.6558 25.6046C21.478 25.8713 21.478 26.4869 21.6558 26.7537C21.9497 27.1982 21.9771 27.2051 24.0894 27.2051C26.2017 27.2051 26.229 27.1982 26.5229 26.7537C26.646 26.569 26.6528 26.3912 26.6528 24.1272C26.6528 21.8633 26.646 21.6855 26.5229 21.5008C26.311 21.1862 26.0513 21.0494 25.6274 21.0494C25.3745 21.0494 25.1899 21.0904 25.0532 21.1794Z" fill="url(#paint9_linear_1_1084)"/>
<defs>
<linearGradient id="paint0_linear_1_1084" x1="17.4263" y1="35.4811" x2="17.4263" y2="0.481079" gradientUnits="userSpaceOnUse">
<stop offset="0.452535" stop-color="#FFA588"/>
<stop offset="1" stop-color="#F36A3E"/>
</linearGradient>
<linearGradient id="paint1_linear_1_1084" x1="5.11963" y1="8.73804" x2="5.11963" y2="6.68614" gradientUnits="userSpaceOnUse">
<stop offset="0.452535" stop-color="#FFA588"/>
<stop offset="1" stop-color="#F36A3E"/>
</linearGradient>
<linearGradient id="paint2_linear_1_1084" x1="14.3481" y1="8.73804" x2="14.3481" y2="6.68614" gradientUnits="userSpaceOnUse">
<stop offset="0.452535" stop-color="#FFA588"/>
<stop offset="1" stop-color="#F36A3E"/>
</linearGradient>
<linearGradient id="paint3_linear_1_1084" x1="5.11963" y1="12.8419" x2="5.11963" y2="10.79" gradientUnits="userSpaceOnUse">
<stop offset="0.452535" stop-color="#FFA588"/>
<stop offset="1" stop-color="#F36A3E"/>
</linearGradient>
<linearGradient id="paint4_linear_1_1084" x1="14.3481" y1="12.8419" x2="14.3481" y2="10.79" gradientUnits="userSpaceOnUse">
<stop offset="0.452535" stop-color="#FFA588"/>
<stop offset="1" stop-color="#F36A3E"/>
</linearGradient>
<linearGradient id="paint5_linear_1_1084" x1="5.11963" y1="16.9457" x2="5.11963" y2="14.8938" gradientUnits="userSpaceOnUse">
<stop offset="0.452535" stop-color="#FFA588"/>
<stop offset="1" stop-color="#F36A3E"/>
</linearGradient>
<linearGradient id="paint6_linear_1_1084" x1="14.3481" y1="16.9457" x2="14.3481" y2="14.8938" gradientUnits="userSpaceOnUse">
<stop offset="0.452535" stop-color="#FFA588"/>
<stop offset="1" stop-color="#F36A3E"/>
</linearGradient>
<linearGradient id="paint7_linear_1_1084" x1="5.11963" y1="21.0494" x2="5.11963" y2="18.9975" gradientUnits="userSpaceOnUse">
<stop offset="0.452535" stop-color="#FFA588"/>
<stop offset="1" stop-color="#F36A3E"/>
</linearGradient>
<linearGradient id="paint8_linear_1_1084" x1="5.11963" y1="25.1532" x2="5.11963" y2="23.1013" gradientUnits="userSpaceOnUse">
<stop offset="0.452535" stop-color="#FFA588"/>
<stop offset="1" stop-color="#F36A3E"/>
</linearGradient>
<linearGradient id="paint9_linear_1_1084" x1="24.0876" y1="27.2051" x2="24.0876" y2="21.0494" gradientUnits="userSpaceOnUse">
<stop offset="0.452535" stop-color="#FFA588"/>
<stop offset="1" stop-color="#F36A3E"/>
</linearGradient>
</defs>
</svg>
