<svg width="35" height="36" viewBox="0 0 35 36" fill="none" xmlns="http://www.w3.org/2000/svg">
<path d="M2.02474 0.506687C1.21074 0.800823 0.60879 1.34805 0.218891 2.14153L0 2.59299V17.8812V33.1693L0.218891 33.6208C0.615631 34.4348 1.23126 34.9752 2.05894 35.2556C2.45568 35.3924 2.65405 35.3924 17.6139 35.3787L32.7652 35.3582L33.244 35.1256C33.8734 34.8178 34.4137 34.2774 34.7216 33.6481L34.9541 33.1693V17.8812V2.59299L34.7216 2.11417C34.4137 1.48486 33.8734 0.944469 33.244 0.636654L32.7652 0.404083L17.5797 0.390404C2.7293 0.37672 2.38728 0.37672 2.02474 0.506687ZM32.389 2.60667C32.519 2.68876 32.69 2.85976 32.7652 2.98289C32.8952 3.19494 32.902 3.35227 32.9226 5.89004L32.9431 8.57829H17.4771H2.01106L2.03158 5.89004C2.0521 3.26334 2.0521 3.20178 2.20259 2.96921C2.36676 2.70244 2.56513 2.55879 2.87294 2.48355C2.98923 2.45618 9.61752 2.4425 17.6139 2.4425L32.1496 2.45618L32.389 2.60667ZM32.9226 21.5886C32.902 32.4169 32.902 32.5537 32.7652 32.7794C32.69 32.9025 32.519 33.0735 32.389 33.1556L32.1496 33.3061H17.4771H2.80454L2.56513 33.1556C2.43516 33.0735 2.26415 32.9025 2.18891 32.7794C2.0521 32.5537 2.0521 32.4169 2.03158 21.5886L2.0179 10.6304H17.4771H32.9362L32.9226 21.5886Z" fill="url(#paint0_linear_1_1075)"/>
<path d="M6.64195 4.60411C6.3273 4.81616 6.19049 5.07609 6.19049 5.50019C6.19049 6.15003 6.56671 6.52625 7.21654 6.52625C7.86637 6.52625 8.24259 6.15003 8.24259 5.50019C8.24259 4.85036 7.86637 4.47414 7.21654 4.47414C6.96345 4.47414 6.77876 4.51519 6.64195 4.60411Z" fill="url(#paint1_linear_1_1075)"/>
<path d="M10.7462 4.60411C10.4315 4.81616 10.2947 5.07609 10.2947 5.50019C10.2947 6.15003 10.671 6.52625 11.3208 6.52625C11.9706 6.52625 12.3468 6.15003 12.3468 5.50019C12.3468 4.85036 11.9706 4.47414 11.3208 4.47414C11.0677 4.47414 10.883 4.51519 10.7462 4.60411Z" fill="url(#paint2_linear_1_1075)"/>
<path d="M14.8504 4.60411C14.5357 4.81616 14.3989 5.07609 14.3989 5.50019C14.3989 6.15003 14.7751 6.52625 15.425 6.52625C16.0748 6.52625 16.451 6.15003 16.451 5.50019C16.451 4.85036 16.0748 4.47414 15.425 4.47414C15.1719 4.47414 14.9872 4.51519 14.8504 4.60411Z" fill="url(#paint3_linear_1_1075)"/>
<path d="M6.64195 12.8125C6.53935 12.8809 6.38886 13.0314 6.32046 13.134C6.19733 13.3187 6.19049 13.5171 6.19049 16.8209C6.19049 20.1248 6.19733 20.3232 6.32046 20.5079C6.38886 20.6105 6.53935 20.761 6.64195 20.8294C6.83348 20.9525 7.1755 20.9594 17.5113 20.9594C27.847 20.9594 28.189 20.9525 28.3806 20.8294C28.4832 20.761 28.6336 20.6105 28.702 20.5079C28.8252 20.3232 28.832 20.1248 28.832 16.8209C28.832 13.5171 28.8252 13.3187 28.702 13.134C28.6336 13.0314 28.4832 12.8809 28.3806 12.8125C28.189 12.6894 27.847 12.6825 17.5113 12.6825C7.1755 12.6825 6.83348 12.6894 6.64195 12.8125ZM26.7799 16.8209V18.9072H17.5113H8.24259V16.8209V14.7346H17.5113H26.7799V16.8209Z" fill="url(#paint4_linear_1_1075)"/>
<path d="M6.64195 23.1414C6.53935 23.2098 6.38886 23.3603 6.32046 23.4629C6.19733 23.6476 6.19049 23.8459 6.19049 27.1498C6.19049 30.4537 6.19733 30.6521 6.32046 30.8367C6.38886 30.9394 6.53935 31.0898 6.64195 31.1582C6.83348 31.2814 7.06605 31.2882 12.3468 31.2882C17.6275 31.2882 17.8601 31.2814 18.0516 31.1582C18.1542 31.0898 18.3047 30.9394 18.3731 30.8367C18.4963 30.6521 18.5031 30.4537 18.5031 27.1498C18.5031 23.8459 18.4963 23.6476 18.3731 23.4629C18.3047 23.3603 18.1542 23.2098 18.0516 23.1414C17.8601 23.0182 17.6275 23.0114 12.3468 23.0114C7.06605 23.0114 6.83348 23.0182 6.64195 23.1414ZM16.451 27.1498V29.2361H12.3468H8.24259V27.1498V25.0635H12.3468H16.451V27.1498Z" fill="url(#paint5_linear_1_1075)"/>
<path d="M21.0067 23.1414C20.9041 23.2098 20.7536 23.3603 20.6852 23.4629C20.5621 23.6476 20.5552 23.8459 20.5552 27.1498C20.5552 30.4537 20.5621 30.6521 20.6852 30.8367C20.7536 30.9394 20.9041 31.0898 21.0067 31.1582C21.1914 31.2814 21.3898 31.2882 24.6936 31.2882C27.9975 31.2882 28.1959 31.2814 28.3806 31.1582C28.4832 31.0898 28.6337 30.9394 28.7021 30.8367C28.8252 30.6521 28.832 30.4537 28.832 27.1498C28.832 23.8459 28.8252 23.6476 28.7021 23.4629C28.6337 23.3603 28.4832 23.2098 28.3806 23.1414C28.1959 23.0182 27.9975 23.0114 24.6936 23.0114C21.3898 23.0114 21.1914 23.0182 21.0067 23.1414ZM26.7799 27.1498V29.2361H24.6936H22.6073V27.1498V25.0635H24.6936H26.7799V27.1498Z" fill="url(#paint6_linear_1_1075)"/>
<defs>
<linearGradient id="paint0_linear_1_1075" x1="17.4771" y1="35.3845" x2="17.4771" y2="0.384521" gradientUnits="userSpaceOnUse">
<stop offset="0.452535" stop-color="#FFA588"/>
<stop offset="1" stop-color="#F36A3E"/>
</linearGradient>
<linearGradient id="paint1_linear_1_1075" x1="7.21654" y1="6.52625" x2="7.21654" y2="4.47414" gradientUnits="userSpaceOnUse">
<stop offset="0.452535" stop-color="#FFA588"/>
<stop offset="1" stop-color="#F36A3E"/>
</linearGradient>
<linearGradient id="paint2_linear_1_1075" x1="11.3208" y1="6.52625" x2="11.3208" y2="4.47414" gradientUnits="userSpaceOnUse">
<stop offset="0.452535" stop-color="#FFA588"/>
<stop offset="1" stop-color="#F36A3E"/>
</linearGradient>
<linearGradient id="paint3_linear_1_1075" x1="15.425" y1="6.52625" x2="15.425" y2="4.47414" gradientUnits="userSpaceOnUse">
<stop offset="0.452535" stop-color="#FFA588"/>
<stop offset="1" stop-color="#F36A3E"/>
</linearGradient>
<linearGradient id="paint4_linear_1_1075" x1="17.5113" y1="20.9594" x2="17.5113" y2="12.6825" gradientUnits="userSpaceOnUse">
<stop offset="0.452535" stop-color="#FFA588"/>
<stop offset="1" stop-color="#F36A3E"/>
</linearGradient>
<linearGradient id="paint5_linear_1_1075" x1="12.3468" y1="31.2882" x2="12.3468" y2="23.0114" gradientUnits="userSpaceOnUse">
<stop offset="0.452535" stop-color="#FFA588"/>
<stop offset="1" stop-color="#F36A3E"/>
</linearGradient>
<linearGradient id="paint6_linear_1_1075" x1="24.6936" y1="31.2882" x2="24.6936" y2="23.0114" gradientUnits="userSpaceOnUse">
<stop offset="0.452535" stop-color="#FFA588"/>
<stop offset="1" stop-color="#F36A3E"/>
</linearGradient>
</defs>
</svg>
